<?xml version="1.0" encoding="UTF-8"?><svg id="Laag_2" xmlns="http://www.w3.org/2000/svg" viewBox="0 0 200 200"><defs><style>.cls-1{fill:none;stroke:#b80000;stroke-linecap:round;stroke-linejoin:round;stroke-width:5px;}</style></defs><path class="cls-1" d="m37.91,138.43v11.42c0,2.09,1.69,3.78,3.78,3.78h12.34c2.09,0,3.78-1.69,3.78-3.78v-11.42"/><path class="cls-1" d="m67.35,107.63c.26,2.97-20.02-2.09-20.95-5.12-.93-3.03-.68-10.71,5.6-10.71s8.05,2.39,10.22,4.66c2.13,2.22,4.66,5.82,5.12,11.17Z"/><line class="cls-1" x1="75.84" y1="100.17" x2="124.16" y2="100.17"/><line class="cls-1" x1="118.73" y1="111.03" x2="81.27" y2="111.03"/><path class="cls-1" d="m43.62,76.35c0,2.8-.92,3.9-5.66,3.9s-8.59-2.27-8.59-5.07,3.84-5.07,8.59-5.07,5.66,3.44,5.66,6.24Z"/><path class="cls-1" d="m100,76.54h52.52l-11.43-23.77c-1.31-2.72-4.06-4.46-7.09-4.46,0,0-16.97-1.94-34-1.94s-34,1.94-34,1.94c-3.02,0-5.78,1.73-7.09,4.46l-11.43,23.77h52.52"/><path class="cls-1" d="m152.52,76.54c3.03,7.56,6.41,14.1,10.31,19.06,2.29,2.92,3.3,6.65,2.7,10.31-1.61,9.71-1.84,19.18-1.87,27.76,0,2.63-2.15,4.76-4.78,4.76H41.13c-2.63,0-4.77-2.13-4.78-4.76-.03-8.66-.26-18.02-1.87-27.75-.61-3.66.4-7.39,2.7-10.31,3.9-4.96,7.28-11.5,10.31-19.06"/><path class="cls-1" d="m162.09,138.43v11.42c0,2.09-1.69,3.78-3.78,3.78h-12.34c-2.09,0-3.78-1.69-3.78-3.78v-11.42"/><path class="cls-1" d="m132.65,107.63c-.26,2.97,20.02-2.09,20.95-5.12.93-3.03.68-10.71-5.6-10.71s-8.05,2.39-10.22,4.66c-2.13,2.22-4.66,5.82-5.12,11.17Z"/><path class="cls-1" d="m147.63,137.16c-5.43-4.34-7.87-10.57-14.65-10.57h-65.97c-6.78,0-9.22,6.23-14.65,10.57"/><path class="cls-1" d="m156.38,76.35c0,2.8.92,3.9,5.66,3.9s8.59-2.27,8.59-5.07-3.84-5.07-8.59-5.07-5.66,3.44-5.66,6.24Z"/></svg>