<!-- icon666.com - MILLIONS OF FREE VECTOR ICONS --><svg viewBox="0 -64 512 512" xmlns="http://www.w3.org/2000/svg"><path d="m440 255c0-35.347656 28.652344-64 64-64 0 35.347656-28.652344 64-64 64zm0 0" fill="#52cd8d" style="fill: rgb(125, 176, 150);"></path><path d="m72 335c0-35.347656-28.652344-64-64-64 0 35.347656 28.652344 64 64 64zm0 0" fill="#8edf78"></path><path d="m72 255c0-35.347656-28.652344-64-64-64 0 35.347656 28.652344 64 64 64zm0 0" fill="#8edf78"></path><path d="m72 7h368v288h-368zm0 0" fill="#87bcc4"></path><path d="m416 231h24v64h-24zm0 0" fill="#498790"></path><path d="m72 7h368v224h-368zm0 0" fill="#e2fc85"></path><g fill="#fff"><path d="m216 191.5h16v15h-16zm0 0" fill="#fff"></path><path d="m248 191.5h16v15h-16zm0 0" fill="#fff"></path><path d="m280 191.5h16v15h-16zm0 0" fill="#fff"></path></g><path d="m416 7h24v224h-24zm0 0" fill="#8edf78"></path><path d="m224 295h64v48h-64zm0 0" fill="#87bcc4"></path><path d="m224 295h64v24h-64zm0 0" fill="#498790"></path><path d="m192 343h128v32h-128zm0 0" fill="#87bcc4"></path><path d="m248 255.5h16v15h-16zm0 0" fill="#fff"></path><path d="m440 335c0-35.347656 28.652344-64 64-64 0 35.347656-28.652344 64-64 64zm0 0" fill="#52cd8d" style="fill: rgb(125, 176, 150);"></path><path d="m440 335c0-35.347656-28.652344-64-64-64 0 35.347656 28.652344 64 64 64zm0 0" fill="#8edf78"></path><path d="m72 335c0-35.347656 28.652344-64 64-64 0 35.347656-28.652344 64-64 64zm0 0" fill="#52cd8d" style="fill: rgb(125, 176, 150);"></path><path d="m392 39.5h16v15h-16zm0 0" fill="#fff"></path><path d="m136 143.5h48v15h-48zm0 0" fill="#fff"></path><path d="m304 103c0 26.507812-21.492188 48-48 48s-48-21.492188-48-48 21.492188-48 48-48 48 21.492188 48 48zm0 0" fill="#87bcc4"></path><path d="m272 103c0 8.835938-7.164062 16-16 16s-16-7.164062-16-16 7.164062-16 16-16 16 7.164062 16 16zm0 0" fill="#498790"></path><path d="m447 368v-25.894531c36-3.761719 64-34.214844 64-71.105469v-7h-7c-22.957031 0-43 10.390625-57 27.261719v-29.15625c36-3.761719 64-34.214844 64-71.105469v-7h-7c-22.957031 0-43 10.390625-57 27.261719v-211.261719h-383v167h15v-152h353v209h-353v-41h-15v28.261719c-13-16.871094-33.042969-27.261719-56-27.261719h-8v7c0 36.890625 29 67.34375 64 71.105469v29.152343c-13-16.867187-33.042969-27.257812-56-27.257812h-8v7c0 36.890625 29 67.34375 64 71.105469v25.894531h-64v15h512v-15zm48.925781-88.925781c-3.554687 24.703125-23.148437 44.296875-47.851562 47.851562 3.554687-24.703125 23.148437-44.296875 47.851562-47.851562zm0-80c-3.554687 24.703125-23.148437 44.296875-47.851562 47.851562 3.554687-24.703125 23.148437-44.296875 47.851562-47.851562zm-479.851562 0c24.703125 3.554687 44.296875 23.148437 47.851562 47.851562-24.703125-3.554687-44.296875-23.148437-47.851562-47.851562zm0 80c24.703125 3.554687 44.296875 23.148437 47.851562 47.851562-24.703125-3.554687-44.296875-23.148437-47.851562-47.851562zm167.925781 88.925781h-105v-25.894531c25-2.609375 46.550781-18.105469 57.167969-39.105469h79.832031v33h-32zm-103.925781-41.074219c3.554687-24.703125 23.148437-44.296875 47.851562-47.851562-3.554687 24.703125-23.148437 44.296875-47.851562 47.851562zm231.925781 41.074219h-113v-17h113zm-81-32v-33h49v33zm201-81v36.261719c-13-16.871094-33.042969-27.261719-56-27.261719h-8v7c0 36.890625 29 67.34375 64 71.105469v25.894531h-105v-32h-32v-33h65v-15h-218.441406c1.257812-6 1.441406-11.320312 1.441406-17v-7h-7c-22.957031 0-43 10.390625-57 27.261719v-52.261719h353zm-.074219 71.925781c-24.703125-3.554687-44.296875-23.148437-47.851562-47.851562 24.703125 3.554687 44.296875 23.148437 47.851562 47.851562zm0 0" fill="#000000"></path><path d="m376 64h32v15h-32zm0 0" fill="#000000"></path><path d="m328 64h32v15h-32zm0 0" fill="#000000"></path><path d="m328 40h48v15h-48zm0 0" fill="#000000"></path><path d="m104 168h32v15h-32zm0 0" fill="#000000"></path><path d="m152 168h32v15h-32zm0 0" fill="#000000"></path><path d="m104 144h16v15h-16zm0 0" fill="#000000"></path><path d="m256 126.5c12.957031 0 23.5-10.542969 23.5-23.5s-10.542969-23.5-23.5-23.5-23.5 10.542969-23.5 23.5 10.542969 23.5 23.5 23.5zm0-32c4.6875 0 8.5 3.8125 8.5 8.5s-3.8125 8.5-8.5 8.5-8.5-3.8125-8.5-8.5 3.8125-8.5 8.5-8.5zm0 0" fill="#000000"></path><path d="m184 96v15h17.019531c1.320313 9 5.144531 18.363281 10.816407 25.808594l-12.050782 11.925781 10.605469 10.542969 11.800781-12.078125c7.445313 5.667969 16.808594 9.464843 25.808594 10.78125v17.019531h15v-17.019531c10-1.320313 18.867188-5.144531 26.308594-10.816407l12.175781 12.050782 10.667969-10.605469-12.015625-11.800781c5.667969-7.445313 9.523437-16.808594 10.84375-25.808594h17.019531v-15h-17.019531c-1.320313-10-5.144531-18.863281-10.816407-26.308594l12.050782-12.175781-10.605469-10.667969-12.300781 12.015625c-7.445313-5.667969-16.308594-9.527343-26.308594-10.84375v-17.019531h-15v17.019531c-9 1.320313-18.363281 5.144531-25.808594 10.816407l-11.925781-12.050782-10.542969 10.605469 12.082032 12.300781c-5.671876 7.445313-9.464844 16.308594-10.785157 26.308594zm72-33.5c22.332031 0 40.5 18.167969 40.5 40.5s-18.167969 40.5-40.5 40.5-40.5-18.167969-40.5-40.5 18.167969-40.5 40.5-40.5zm0 0" fill="#000000"></path></svg>